<svg width="11" height="11" viewBox="0 0 11 11" fill="none" xmlns="http://www.w3.org/2000/svg">
<path d="M5.10526 0H5.89474C5.96491 0 6 0.0407407 6 0.122222V10.8778C6 10.9593 5.96491 11 5.89474 11H5.10526C5.03509 11 5 10.9593 5 10.8778V0.122222C5 0.0407407 5.03509 0 5.10526 0Z" fill="white"/>
<path d="M0.127907 6H10.8721C10.9574 6 11 5.96491 11 5.89474V5.10526C11 5.03509 10.9574 5 10.8721 5H0.127907C0.0426357 5 0 5.03509 0 5.10526V5.89474C0 5.96491 0.0426357 6 0.127907 6Z" fill="white"/>
</svg>
