<svg viewBox="0 0 19 20" fill="none" xmlns="http://www.w3.org/2000/svg">
<path d="M0.678963 19.8867C0.883872 19.9709 1.11394 20.0094 1.34447 19.9981C1.575 19.9868 1.79728 19.9262 1.98747 19.8227L18.4547 10.8231C18.6229 10.731 18.7604 10.6082 18.8554 10.465C18.9504 10.3219 19 10.1627 19 10.0011C19 9.83951 18.9504 9.68032 18.8554 9.53716C18.7604 9.39401 18.6229 9.27116 18.4547 9.17913L1.98747 0.179485C1.79764 0.0749438 1.5751 0.01355 1.34411 0.00199714C1.11311 -0.00955568 0.882533 0.0291759 0.677508 0.113969C0.472484 0.198762 0.300884 0.326363 0.181416 0.482858C0.0619479 0.639354 -0.000802033 0.818738 7.73934e-06 1.00145V19.0008C-3.03644e-05 19.1833 0.0632203 19.3623 0.182904 19.5185C0.302588 19.6747 0.474139 19.802 0.678963 19.8867ZM2.53342 2.91038L15.5083 10.0011L2.53342 17.0918V2.91038Z" fill="white"/>
</svg>
