<svg viewBox="0 0 22 22" fill="none" xmlns="http://www.w3.org/2000/svg">
<path fill-rule="evenodd" clip-rule="evenodd" d="M19.525 7.5625H7.975C7.74718 7.5625 7.5625 7.74718 7.5625 7.975V19.525C7.5625 19.7528 7.74718 19.9375 7.975 19.9375H19.525C19.7528 19.9375 19.9375 19.7528 19.9375 19.525V7.975C19.9375 7.74718 19.7528 7.5625 19.525 7.5625ZM7.975 5.5C6.6081 5.5 5.5 6.60809 5.5 7.975V19.525C5.5 20.8919 6.60809 22 7.975 22H19.525C20.8919 22 22 20.8919 22 19.525V7.975C22 6.6081 20.8919 5.5 19.525 5.5H7.975Z" fill="white"/>
<path fill-rule="evenodd" clip-rule="evenodd" d="M12.9352 0.0425861C14.2538 -0.203449 15.5287 0.641129 15.8023 1.94205L16.5 5.2586L14.8926 5.59024L14.1949 2.27369C14.1037 1.84005 13.6788 1.55853 13.2392 1.64054L2.3114 3.67955C1.85864 3.76403 1.56471 4.20088 1.66032 4.64723L3.90908 15.1463C3.98954 15.5219 4.32441 15.7906 4.71216 15.7906H5.22915V17.4167H4.71216C3.54892 17.4167 2.54429 16.6106 2.30291 15.4837L0.0541479 4.98465C-0.232661 3.64559 0.649126 2.33503 2.00741 2.08159L12.9352 0.0425861Z" fill="white"/>
<path fill-rule="evenodd" clip-rule="evenodd" d="M20 7H7V20H20V7ZM12 11.2512V17.0092C12 17.3209 12.2897 17.5169 12.5234 17.3632L16.4055 14.8101C16.6346 14.6595 16.6442 14.2806 16.4233 14.1146L12.3335 11.0407C12.1897 10.9326 12 11.0524 12 11.2512Z" fill="white"/>
</svg>
