<svg width="15" height="15" viewBox="0 0 15 15" fill="none" xmlns="http://www.w3.org/2000/svg">
<rect x="6.10352e-05" width="14" height="14" rx="7" fill="#525252"/>
<path d="M10.3528 3.2818L10.8603 3.78929C10.9054 3.8344 10.9017 3.88315 10.8494 3.93553L3.93542 10.8495C3.88304 10.9018 3.8343 10.9055 3.78919 10.8604L3.28169 10.3529C3.23658 10.3078 3.24022 10.259 3.29259 10.2066L10.2065 3.2927C10.2589 3.24032 10.3077 3.23669 10.3528 3.2818Z" fill="white"/>
<path d="M3.29627 3.93918L10.2029 10.8458C10.2577 10.9006 10.3077 10.9055 10.3528 10.8604L10.8603 10.3529C10.9054 10.3078 10.9005 10.2578 10.8457 10.203L3.9391 3.29635C3.88428 3.24154 3.83432 3.23669 3.78921 3.2818L3.28172 3.78929C3.23661 3.8344 3.24146 3.88436 3.29627 3.93918Z" fill="white"/>
</svg>
