<svg viewBox="0 0 13 16" fill="none" xmlns="http://www.w3.org/2000/svg">
<path d="M6.864 0.0459927C5.908 -0.193007 5.02 0.529993 4.956 1.46599C4.884 2.51699 4.726 3.48199 4.528 4.05599C4.403 4.41599 4.049 5.06899 3.488 5.69499C2.931 6.31799 2.206 6.87299 1.357 7.10499C0.685 7.28799 0 7.86999 0 8.71999V12.721C0 13.566 0.682 14.185 1.448 14.266C2.518 14.38 3.012 14.681 3.516 14.989L3.564 15.019C3.836 15.184 4.142 15.367 4.534 15.503C4.931 15.639 5.395 15.72 6 15.72H9.5C10.437 15.72 11.099 15.243 11.434 14.656C11.5959 14.379 11.6834 14.0648 11.688 13.744C11.688 13.592 11.665 13.432 11.611 13.28C11.812 13.017 11.991 12.702 12.099 12.379C12.209 12.049 12.271 11.617 12.103 11.23C12.172 11.1 12.223 10.961 12.262 10.827C12.339 10.557 12.375 10.259 12.375 9.96999C12.375 9.68199 12.339 9.38499 12.262 9.11399C12.227 8.98941 12.1808 8.86825 12.124 8.75199C12.2991 8.50287 12.4118 8.2153 12.4525 7.91353C12.4932 7.61176 12.4608 7.30462 12.358 7.01799C12.152 6.42599 11.676 5.91799 11.158 5.74599C10.311 5.46399 9.355 5.46999 8.642 5.53499C8.49397 5.54831 8.34627 5.56498 8.199 5.58499C8.54591 4.09938 8.52462 2.55151 8.137 1.07599C8.06956 0.839582 7.9402 0.625478 7.76228 0.455822C7.58436 0.286167 7.36435 0.16712 7.125 0.110993L6.864 0.0459927ZM9.5 14.721H6C5.49 14.721 5.137 14.652 4.86 14.557C4.579 14.46 4.354 14.329 4.084 14.164L4.044 14.14C3.489 13.801 2.846 13.409 1.554 13.272C1.221 13.236 1 12.982 1 12.722V8.71999C1 8.46599 1.226 8.17699 1.62 8.06999C2.715 7.76999 3.597 7.07399 4.234 6.36199C4.869 5.65199 5.298 4.88699 5.472 4.38399C5.715 3.68399 5.879 2.61599 5.954 1.53399C5.979 1.17199 6.314 0.939993 6.621 1.01599L6.883 1.08199C7.043 1.12199 7.141 1.22499 7.171 1.33699C7.57939 2.89301 7.52903 4.53394 7.026 6.06199C6.99753 6.14698 6.99242 6.23806 7.01122 6.32569C7.03002 6.41333 7.07203 6.4943 7.13285 6.56014C7.19368 6.62597 7.27108 6.67424 7.35695 6.6999C7.44283 6.72556 7.53403 6.72766 7.621 6.70599L7.624 6.70499L7.638 6.70199L7.696 6.68799C8.03795 6.61538 8.38389 6.56295 8.732 6.53099C9.395 6.47099 10.189 6.47699 10.842 6.69499C11.017 6.75299 11.292 6.99499 11.412 7.34499C11.519 7.65299 11.499 8.01499 11.146 8.36699L10.793 8.71999L11.146 9.07399C11.189 9.11699 11.251 9.21499 11.3 9.38899C11.348 9.55599 11.375 9.75899 11.375 9.96999C11.375 10.182 11.348 10.384 11.3 10.552C11.25 10.726 11.189 10.824 11.146 10.867L10.793 11.22L11.146 11.574C11.193 11.621 11.255 11.751 11.151 12.062C11.0426 12.3636 10.8704 12.6382 10.646 12.867L10.293 13.22L10.646 13.574C10.652 13.579 10.687 13.624 10.687 13.744C10.6826 13.8907 10.6409 14.0338 10.566 14.16C10.401 14.448 10.063 14.72 9.5 14.72V14.721Z" fill="white"/>
</svg>
