<svg width="30" height="32" viewBox="0 0 30 32" fill="none" xmlns="http://www.w3.org/2000/svg">
<rect width="30" height="32" rx="5" fill="black"/>
<path d="M10.1191 23H8.30273V10.959L4.66016 12.2969V10.6562L9.83594 8.71289H10.1191V23ZM24.0352 12.4922C24.0352 13.2018 23.8464 13.8333 23.4688 14.3867C23.0977 14.9401 22.5931 15.373 21.9551 15.6855C22.6973 16.0046 23.2832 16.4701 23.7129 17.082C24.1491 17.694 24.3672 18.3874 24.3672 19.1621C24.3672 20.3926 23.9505 21.3724 23.1172 22.1016C22.2904 22.8307 21.1999 23.1953 19.8457 23.1953C18.4785 23.1953 17.3815 22.8307 16.5547 22.1016C15.7344 21.3659 15.3242 20.3861 15.3242 19.1621C15.3242 18.3939 15.5326 17.7005 15.9492 17.082C16.3724 16.4635 16.9551 15.9948 17.6973 15.6758C17.0658 15.3633 16.5677 14.9303 16.2031 14.377C15.8385 13.8236 15.6562 13.1953 15.6562 12.4922C15.6562 11.2943 16.0404 10.3438 16.8086 9.64062C17.5768 8.9375 18.5892 8.58594 19.8457 8.58594C21.0957 8.58594 22.1048 8.9375 22.873 9.64062C23.6478 10.3438 24.0352 11.2943 24.0352 12.4922ZM22.5605 19.123C22.5605 18.3288 22.3066 17.681 21.7988 17.1797C21.2975 16.6784 20.64 16.4277 19.8262 16.4277C19.0124 16.4277 18.3581 16.6751 17.8633 17.1699C17.375 17.6647 17.1309 18.3158 17.1309 19.123C17.1309 19.9303 17.3685 20.5651 17.8438 21.0273C18.3255 21.4896 18.9928 21.7207 19.8457 21.7207C20.6921 21.7207 21.3561 21.4896 21.8379 21.0273C22.3197 20.5586 22.5605 19.9238 22.5605 19.123ZM19.8457 10.0703C19.1361 10.0703 18.5599 10.2917 18.1172 10.7344C17.681 11.1706 17.4629 11.7663 17.4629 12.5215C17.4629 13.2441 17.6777 13.8301 18.1074 14.2793C18.5436 14.722 19.123 14.9434 19.8457 14.9434C20.5684 14.9434 21.1445 14.722 21.5742 14.2793C22.0104 13.8301 22.2285 13.2441 22.2285 12.5215C22.2285 11.7988 22.0039 11.2096 21.5547 10.7539C21.1055 10.2982 20.5358 10.0703 19.8457 10.0703Z" fill="white"/>
</svg>
