<svg viewBox="0 0 72 72" fill="none" xmlns="http://www.w3.org/2000/svg">
<path d="M70.2815 64.7162L56.934 51.3687C61.8543 45.0326 64.1748 37.0594 63.4231 29.0724C62.6715 21.0855 58.9042 13.6852 52.8882 8.37826C46.8722 3.07128 39.0598 0.25655 31.0415 0.507111C23.0231 0.757672 15.4017 4.05469 9.72881 9.72693C4.0559 15.3992 0.75799 23.0202 0.506483 31.0385C0.254977 39.0568 3.06878 46.8695 8.37505 52.8861C13.6813 58.9028 21.0811 62.6709 29.068 63.4235C37.0548 64.1761 45.0283 61.8565 51.3651 56.937L64.7129 70.2845C65.0774 70.655 65.5117 70.9497 65.9907 71.1515C66.4697 71.3534 66.9839 71.4584 67.5036 71.4605C68.0234 71.4626 68.5385 71.3618 69.0191 71.1639C69.4997 70.9659 69.9364 70.6748 70.3039 70.3073C70.6714 69.9397 70.9626 69.503 71.1605 69.0224C71.3584 68.5418 71.4593 68.0268 71.4571 67.507C71.455 66.9872 71.35 66.473 71.1482 65.994C70.9463 65.515 70.652 65.0807 70.2815 64.7162ZM8.43646 32.0625C8.43646 27.3899 9.82205 22.8223 12.418 18.9372C15.0139 15.0521 18.7037 12.024 23.0206 10.2359C27.3375 8.44774 32.0877 7.97989 36.6705 8.89147C41.2533 9.80304 45.4628 12.0531 48.7669 15.3571C52.0709 18.6611 54.3209 22.8707 55.2325 27.4535C56.1441 32.0363 55.6762 36.7865 53.8881 41.1034C52.1 45.4203 49.0719 49.11 45.1868 51.706C41.3017 54.3019 36.734 55.6875 32.0615 55.6875C25.7979 55.6805 19.7929 53.1892 15.3638 48.7601C10.9348 44.3311 8.4435 38.3261 8.43646 32.0625Z" fill="white"/>
</svg>
