<svg viewBox="0 0 38 35" fill="none" xmlns="http://www.w3.org/2000/svg">
<rect width="38" height="35" rx="5" fill="#FE0000"/>
<path d="M14.5352 6.89258H11.9219V14H10.1641V6.89258H7.58594V5.46875H14.5352V6.89258ZM22.3867 9.92773C22.3867 10.7676 22.2383 11.5039 21.9414 12.1367C21.6445 12.7695 21.2188 13.2578 20.6641 13.6016C20.1133 13.9453 19.4805 14.1172 18.7656 14.1172C18.0586 14.1172 17.4277 13.9473 16.873 13.6074C16.3184 13.2676 15.8887 12.7832 15.584 12.1543C15.2793 11.5215 15.125 10.7949 15.1211 9.97461V9.55273C15.1211 8.71289 15.2715 7.97461 15.5723 7.33789C15.877 6.69727 16.3047 6.20703 16.8555 5.86719C17.4102 5.52344 18.043 5.35156 18.7539 5.35156C19.4648 5.35156 20.0957 5.52344 20.6465 5.86719C21.2012 6.20703 21.6289 6.69727 21.9297 7.33789C22.2344 7.97461 22.3867 8.71094 22.3867 9.54688V9.92773ZM20.6055 9.54102C20.6055 8.64648 20.4453 7.9668 20.125 7.50195C19.8047 7.03711 19.3477 6.80469 18.7539 6.80469C18.1641 6.80469 17.709 7.03516 17.3887 7.49609C17.0684 7.95312 16.9062 8.625 16.9023 9.51172V9.92773C16.9023 10.7988 17.0625 11.4746 17.3828 11.9551C17.7031 12.4355 18.1641 12.6758 18.7656 12.6758C19.3555 12.6758 19.8086 12.4453 20.125 11.9844C20.4414 11.5195 20.6016 10.8438 20.6055 9.95703V9.54102ZM25.4219 10.9941V14H23.6641V5.46875H26.9922C27.6328 5.46875 28.1953 5.58594 28.6797 5.82031C29.168 6.05469 29.543 6.38867 29.8047 6.82227C30.0664 7.25195 30.1973 7.74219 30.1973 8.29297C30.1973 9.12891 29.9102 9.78906 29.3359 10.2734C28.7656 10.7539 27.9746 10.9941 26.9629 10.9941H25.4219ZM25.4219 9.57031H26.9922C27.457 9.57031 27.8105 9.46094 28.0527 9.24219C28.2988 9.02344 28.4219 8.71094 28.4219 8.30469C28.4219 7.88672 28.2988 7.54883 28.0527 7.29102C27.8066 7.0332 27.4668 6.90039 27.0332 6.89258H25.4219V9.57031Z" fill="white"/>
<path d="M15.2041 30H12.6641V20.209L9.63184 21.1494V19.084L14.9316 17.1855H15.2041V30ZM27.9834 24.709C27.9834 26.4785 27.6172 27.832 26.8848 28.7695C26.1523 29.707 25.0801 30.1758 23.668 30.1758C22.2734 30.1758 21.207 29.7158 20.4688 28.7959C19.7305 27.876 19.3525 26.5576 19.335 24.8408V22.4854C19.335 20.6982 19.7041 19.3418 20.4424 18.416C21.1865 17.4902 22.2559 17.0273 23.6504 17.0273C25.0449 17.0273 26.1113 17.4873 26.8496 18.4072C27.5879 19.3213 27.9658 20.6367 27.9834 22.3535V24.709ZM25.4434 22.125C25.4434 21.0645 25.2969 20.2939 25.0039 19.8135C24.7168 19.3271 24.2656 19.084 23.6504 19.084C23.0527 19.084 22.6104 19.3154 22.3232 19.7783C22.042 20.2354 21.8926 20.9531 21.875 21.9316V25.043C21.875 26.0859 22.0156 26.8623 22.2969 27.3721C22.584 27.876 23.041 28.1279 23.668 28.1279C24.2891 28.1279 24.7373 27.8848 25.0127 27.3984C25.2881 26.9121 25.4316 26.168 25.4434 25.166V22.125Z" fill="white"/>
</svg>
